<svg width="628" height="84" viewBox="0 0 628 84" fill="none" xmlns="http://www.w3.org/2000/svg">
<path d="M19.53 66H36.9L47.61 31.53H48.96L60.03 66H77.76L93.69 10.83V7.5H78.66L68.94 43.59H67.95L56.88 7.5H40.41L29.34 43.59H28.35L18.63 7.5H3.15V10.83L19.53 66ZM356.992 66H374.092L391.192 23.88V21H376.612L366.712 47.19H365.812L356.542 21H340.882V23.88L356.992 66ZM597.684 66H613.974V51.33H597.684V66Z" fill="#F9C80E"/>
<path d="M134.025 49.08C132.315 52.05 129.075 53.4 125.385 53.4C120.255 53.4 116.655 50.43 115.935 45.48H149.865V39.9C148.605 28.02 138.885 19.92 125.385 19.92C111.075 19.92 100.545 29.1 100.545 43.5C100.545 57.9 111.075 67.08 125.385 67.08C137.625 67.08 147.075 60.51 149.865 51.96V49.08H134.025ZM125.385 32.52C129.615 32.52 132.405 34.32 133.935 37.47H116.835C118.365 34.32 121.425 32.52 125.385 32.52ZM430.129 49.08C428.419 52.05 425.179 53.4 421.489 53.4C416.359 53.4 412.759 50.43 412.039 45.48H445.969V39.9C444.709 28.02 434.989 19.92 421.489 19.92C407.179 19.92 396.649 29.1 396.649 43.5C396.649 57.9 407.179 67.08 421.489 67.08C433.729 67.08 443.179 60.51 445.969 51.96V49.08H430.129ZM421.489 32.52C425.719 32.52 428.509 34.32 430.039 37.47H412.939C414.469 34.32 417.529 32.52 421.489 32.52Z" fill="#F86624"/>
<path d="M159.755 66H174.875V61.77C178.295 65.19 182.975 67.08 188.285 67.08C199.895 67.08 208.355 57.9 208.355 43.5C208.355 29.1 199.895 19.92 188.285 19.92C182.975 19.92 178.295 21.9 174.875 25.32V3H159.755V66ZM183.695 34.14C189.365 34.14 193.055 37.65 193.055 43.5C193.055 49.35 189.365 52.86 183.695 52.86C178.025 52.86 174.335 49.35 174.335 43.5C174.335 37.65 178.025 34.14 183.695 34.14ZM455.858 66H470.978V3H455.858V66Z" fill="#EA3546"/>
<path d="M219.73 66H246.19C264.37 66 278.32 54.93 278.32 36.66C278.32 18.39 264.37 7.5 246.19 7.5H219.73V66ZM246.19 20.82C255.73 20.82 262.75 26.4 262.75 36.66C262.75 46.92 255.73 52.68 246.19 52.68H235.03V20.82H246.19ZM505.688 67.08C519.998 67.08 530.528 57.9 530.528 43.5C530.528 29.1 519.998 19.92 505.688 19.92C491.378 19.92 480.848 29.1 480.848 43.5C480.848 57.9 491.378 67.08 505.688 67.08ZM505.688 34.14C511.448 34.14 515.228 37.65 515.228 43.5C515.228 49.35 511.448 52.86 505.688 52.86C499.928 52.86 496.148 49.35 496.148 43.5C496.148 37.65 499.928 34.14 505.688 34.14Z" fill="#662E9B"/>
<path d="M319.563 49.08C317.853 52.05 314.613 53.4 310.923 53.4C305.793 53.4 302.193 50.43 301.473 45.48H335.403V39.9C334.143 28.02 324.423 19.92 310.923 19.92C296.613 19.92 286.083 29.1 286.083 43.5C286.083 57.9 296.613 67.08 310.923 67.08C323.163 67.08 332.613 60.51 335.403 51.96V49.08H319.563ZM310.923 32.52C315.153 32.52 317.943 34.32 319.473 37.47H302.373C303.903 34.32 306.963 32.52 310.923 32.52ZM540.409 79.95H555.529V61.77C558.949 65.19 563.629 67.08 568.939 67.08C580.549 67.08 589.009 57.9 589.009 43.5C589.009 29.1 580.549 19.92 568.939 19.92C563.629 19.92 558.949 21.9 555.529 25.32V21H540.409V79.95ZM564.349 34.14C570.019 34.14 573.709 37.65 573.709 43.5C573.709 49.35 570.019 52.86 564.349 52.86C558.679 52.86 554.989 49.35 554.989 43.5C554.989 37.65 558.679 34.14 564.349 34.14Z" fill="#43BCCD"/>
</svg>
